<?xml version="1.0" standalone="no"?><!DOCTYPE svg PUBLIC "-//W3C//DTD SVG 1.1//EN" "http://www.w3.org/Graphics/SVG/1.1/DTD/svg11.dtd"><svg t="1690563408938" class="icon" viewBox="0 0 1123 1024" version="1.1" xmlns="http://www.w3.org/2000/svg" p-id="12271" width="219.3359375" height="200" xmlns:xlink="http://www.w3.org/1999/xlink"><path d="M1123.153582 863.338019l-123.374109-41.116196-185.405713-695.478789-10.961767-39.099945 92.773043 45.021085 1.148497 3.611386z m-109.081701-54.681222l82.538657 27.56393-214.858282-691.152784-51.363342-24.96067 0.574248 2.169383zM988.243457 820.818105l-133.761627-9.570809-1.442001-6.201885L684.223518 64.086137l-4.326005-17.597527 109.745276 34.046558 1.276108 4.61951z m-119.762723-25.866707l96.677932 6.929266-189.744479-707.601814-71.56413-22.217039zM724.918598 819.912068L722.608843 802.735656l1.735507-0.293505-147.900903-722.596082-3.024375-28.712427 91.879767-5.104431 175.477593 766.238971z m-131.298739-742.694781L741.788744 801.587159l77.344898-5.104431L651.618962 64.264792l-59.019989 3.177509zM610.490005 843.137231L461.580978 60.513035l78.927272-7.069637h18.758786l153.235033 764.299287zM482.07527 76.094312l142.030806 745.999901 68.105878-17.023279L544.987388 70.900553h-4.185633zM495.487164 893.071332l-133.32775-778.425801 84.988784-48.772843 149.623648 774.98031z m-114.27546-769.493046l127.40661 743.179702 68.820498-35.501321L434.884801 92.836848zM393.334729 961.751458l-9.813269-18.184537-0.140372-1.582374-99.12806-781.182194 61.470116-42.11156L481.347889 900.995962z m-90.603659-792.577838l97.252181 767.04292 62.33787-43.145208-129.167639-744.825881z" fill="#9a6d40" p-id="12272"></path><path d="M383.240716 830.873835l-66.676636-89.021285-0.293505-2.309756-88.051443-705.292059 65.221873 79.220777z m-49.92134-95.708091l24.667165 33.038433-81.096655-647.663028-24.1312-29.146303zM303.879567 745.744679l-103.594437-45.161458-75.290364-700.583221 88.408753 20.69847z m-87.438911-56.990978l66.523503 29.005932-85.078111-682.921888-52.958477-12.263397zM93.500424 766.238971L25.54768 86.915707l-0.867754-26.657893L111.251084 3.113703l76.18364 699.230547zM42.851702 86.201087l65.081502 649.449578 61.176611-41.703205L96.958676 33.24261l-54.872638 36.215941zM61.176611 899.847465L2.169383 197.018294 0 124.726783l17.316784-1.008125 65.221873 719.712078-4.185634 56.276357-17.176412 0.140372zM80.080873 910.476168l12.505857-11.977549 61.775106 64.507253-12.507133 11.977549zM159.092368 988.299606l5.174618-16.525597 113.874762 35.664663-5.175894 16.525597zM289.842381 1008.3345l76.330392-46.646847 9.029739 14.776053-76.330392 46.646847zM360.57704 881.229051l-50.214845-34.773939-44.587209-31.456059 15.440906-60.895868 17.176411 11.484971 59.160361 50.495589z m-40.248442-48.925975l21.208913 14.713523-1.008126-22.650914-48.772842-41.703206-6.38054 24.96067zM247.462838 812.982802l-91.33104-7.797019-29.159065-32.859777 59.019989-54.872639 80.228902 34.046558z m-82.947011-24.386421l70.556004 5.921141 10.094013-33.178805-55.561737-23.467624-38.385324 35.641693zM276.749514 996.665769L261.168237 832.46897l97.686057 65.081501-2.552215 37.083695z m5.104431-129.716365l9.085889 96.5248 48.492099-37.798315 1.276107-19.333035zM171.853447 937.939285l-38.819201-9.379393-36.07557-75.175514 17.316784-69.981756 45.454962 55.84248z m-26.798265-24.246049l6.495389 1.582373-8.537162-68.820497-20.417726-25.101042-7.503514 30.154429zM259.292358 983.674991l-70.696376-34.914311-14.139275-129.142117 72.865759 10.961767z m-54.54085-46.322715l34.914311 17.176412-8.511639-108.941329-36.943323-5.487264z" fill="#9a6d40" p-id="12273"></path><path d="M366.204676 737.666916c-10.208863 0-12.556901-10.821395-15.440906-24.526793s-6.929266-32.323812-19.626539-49.487464c-35.067444-47.611585-128.274363-73.873885-200.412741-37.517571-61.610488 30.88181-72.138378 82.538657-75.609391 99.421564-0.293505 1.442002-0.574249 2.552216-0.727382 3.458253l-8.358506-2.029012c0.140372-0.867753 0.433877-1.875879 0.727381-3.177509 3.751757-17.86551 14.866657-72.572255 80.228902-105.329943 35.348188-17.75066 77.919147-22.510543 119.762724-13.424655 39.189273 8.524401 72.572255 27.997807 91.509695 53.545486 13.84577 18.758786 18.031404 38.525697 21.068541 52.958477 2.309755 11.1149 4.045262 17.86551 7.21001 17.75066 1.735507 0 3.892129-6.201884 4.759882-8.805144 1.148497-3.458252 2.169383-6.380539 4.045262-8.218135 51.516475-57.14411 164.490305-101.14431 294.500175-115.002841 66.804247-7.069638 135.344001-5.627636 198.102985 4.185634 69.981756 10.961767 132.459997 31.749564 185.699218 61.75086l-4.326006 7.503514c-99.268431-56.148746-237.356064-79.795025-378.621205-64.787997-128.172275 13.552266-238.836349 56.557101-289.051194 112.106077a25.101042 25.101042 0 0 0-2.169383 5.334131c-2.169383 6.061512-5.104431 14.43278-12.556902 14.573152a0.791187 0.791187 0 0 0-0.71462-0.280744zM306.189323 281.279697a7.248293 7.248293 0 0 1-1.735507-0.293505c-0.867753-0.293505-3.611385-1.442002-3.458252-5.627636 0.140372-7.797019-5.921141-29.350481-22.217039-53.532725a175.962514 175.962514 0 0 0-75.469019-63.486366c-5.921141-2.552216-59.594238-24.526793-110.242959 5.334131-44.727581 26.402672-61.316983 80.075769-63.345995 92.926175l-8.511639-1.276108c0.140372-0.727381 12.556901-66.663875 67.531628-99.12806 54.272868-32.043069 111.697722-8.524401 118.078262-5.793529 66.229999 28.852799 97.111809 89.748667 102.152435 117.746473 2.169383-2.884004 4.759882-6.380539 6.776133-9.085888 2.884004-3.892129 5.768008-7.937391 8.511639-11.255272 44.587209-55.689347 143.996012-95.810179 259.43273-104.640845 62.337869-4.759882 124.522606 0.140372 179.93121 14.139275 62.006081 15.759932 113.229051 42.047754 152.328997 77.778775l-5.921141 6.380539c-72.291511-66.357609-194.210857-99.84268-325.943472-89.748666-113.114202 8.652011-210.0984 47.458452-253.371218 101.425053-2.450127 3.177509-5.487264 7.069638-8.218135 10.961767-8.805144 12.556901-12.41653 17.176412-16.308658 17.176412z" fill="#9a6d40" p-id="12274"></path></svg>